<svg width="120" height="120" viewBox="0 0 120 120" fill="none" xmlns="http://www.w3.org/2000/svg">
<circle cx="60" cy="60" r="60" fill="#FFF9F7"/>
<g clip-path="url(#clip0)">
<path d="M65.6445 47.0264H65.7006C65.7007 47.0264 65.657 46.9167 65.6445 47.0264Z" fill="#FF7F5C"/>
<path d="M52.1011 47.0264H52.1571C52.1447 46.9167 52.1011 47.0264 52.1011 47.0264Z" fill="#FF7F5C"/>
<path d="M79.1715 50.4794C78.8567 49.977 78.3653 49.6272 77.7876 49.4944L74.7448 48.7953L76.1497 48.402C77.3138 48.0762 78.0151 46.8329 77.6888 45.6666C77.3629 44.5025 76.1198 43.8014 74.9534 44.1275L68.4025 45.961C68.2319 45.6507 67.9894 45.3851 67.6973 45.1875C69.0267 42.7133 70.9422 38.5147 70.9422 36.7084C70.9422 36.2679 70.5257 35.927 70.0936 36.0141C67.4938 36.5393 65.0699 36.7816 62.6863 36.7557C60.2363 36.7288 57.187 36.4244 55.2712 36.0157C54.6788 35.8893 54.2035 36.5521 54.5159 37.0728C54.9828 37.8509 55.2688 38.6737 55.426 39.5029C53.0214 39.5766 50.5278 39.2852 48.6404 38.3414C48.132 38.0872 47.5319 38.532 47.6249 39.0914C48.2185 42.6527 49.4161 44.7407 50.6167 46.3183H50.5901C49.3664 46.3183 48.3708 47.3139 48.3708 48.5376C48.3708 49.6631 49.2131 50.5949 50.3002 50.7375C49.5078 52.0648 48.376 53.3241 47.1869 54.6456C44.6582 57.4559 41.7919 60.6411 40.8276 65.7842C40.3662 68.245 40.3816 70.5476 40.8735 72.6281C41.3327 74.5705 42.2073 76.3286 43.4728 77.8535C45.1527 79.8778 47.4607 81.4483 50.3327 82.522C52.9197 83.489 55.8825 84.0001 58.9009 84.0001C61.9193 84.0001 64.8821 83.489 67.4691 82.522C70.341 81.4483 72.6491 79.8777 74.329 77.8535C75.5945 76.3286 76.4691 74.5706 76.9283 72.6281C77.4201 70.5476 77.4356 68.2449 76.9741 65.7842C76.0098 60.6412 73.1437 57.456 70.615 54.6457C69.7565 53.6916 68.9397 52.782 68.255 51.8587L76.7937 53.8205C77.6983 54.0284 78.6622 53.6327 79.1619 52.851C79.6192 52.1353 79.6219 51.1983 79.1715 50.4794ZM62.6708 38.1721C64.8517 38.1959 67.0589 38.0053 69.3904 37.5898C68.9629 39.3375 67.5901 42.4461 66.288 44.8141C65.3857 44.8821 64.6325 45.4917 64.3533 46.3182H62.3868C62.3424 46.2225 62.2931 46.1176 62.2383 46.001C61.6302 44.7084 60.3648 42.0187 60.3648 39.7305C60.3648 39.2906 59.9494 38.9495 59.5176 39.0359C58.6933 39.2009 57.7865 39.3343 56.8429 39.4179C56.744 38.8269 56.5905 38.2349 56.3674 37.6528C58.2705 37.9473 60.6678 38.1501 62.6708 38.1721ZM67.2589 47.0264V50.0485C67.2589 50.4911 66.8988 50.8513 66.4561 50.8513C66.0134 50.8513 65.6533 50.4912 65.6533 50.0485V47.0264C65.6533 46.5837 66.0134 46.2236 66.4561 46.2236C66.8988 46.2236 67.2589 46.5838 67.2589 47.0264ZM49.276 40.135C51.0468 40.7394 53.2251 41.0074 55.5775 40.9247L56.9813 40.836C57.6435 40.7753 58.3153 40.6878 58.9921 40.5734C59.213 42.7647 60.214 45.0164 60.8223 46.3182H56.106H54.6159H52.4244C52.4086 46.2933 52.3915 46.269 52.3723 46.2457C51.1876 44.8204 49.9854 43.1718 49.276 40.135ZM69.5619 55.5931C71.9661 58.2648 74.6908 61.2929 75.5819 66.045C76.402 70.4186 75.6136 74.0871 73.2388 76.9484C70.3107 80.4767 64.9507 82.5833 58.901 82.5833C52.8513 82.5833 47.4912 80.4768 44.563 76.9485C42.1882 74.0872 41.4 70.4187 42.2199 66.0451C43.111 61.2929 45.8359 58.2647 48.24 55.5931C49.6775 53.9955 51.0355 52.4844 51.9059 50.7569H53.6358C54.0271 50.7569 54.3441 50.4397 54.3441 50.0486C54.3441 49.6574 54.027 49.3403 53.6358 49.3403H50.59C50.1473 49.3403 49.7872 48.9802 49.7872 48.5375C49.7872 48.0948 50.1473 47.7347 50.59 47.7347H64.2367V49.3402H57.0119C56.6206 49.3402 56.3036 49.6574 56.3036 50.0485C56.3036 50.4396 56.6207 50.7568 57.0119 50.7568H64.3532C64.6495 51.6341 65.4799 52.2679 66.456 52.2679C66.5688 52.2679 66.6794 52.2592 66.7878 52.243C67.5783 53.3865 68.5419 54.4596 69.5619 55.5931ZM68.6756 47.3556L75.3351 45.4918C75.7568 45.3736 76.2068 45.6276 76.3245 46.0485C76.4425 46.4702 76.1889 46.9201 75.7679 47.0378L71.962 48.103C71.9309 48.1117 71.9013 48.123 71.8725 48.1354L68.6756 47.4009V47.3556ZM78.073 51.8371C77.9738 52.2685 77.5429 52.539 77.1108 52.4397L68.631 50.4914C68.6601 50.3482 68.6755 50.2001 68.6755 50.0484V48.8542L77.4703 50.8749C77.8965 50.9729 78.171 51.4104 78.073 51.8371Z" fill="#FF7F5C"/>
<path d="M63.4346 65.1118C64.45 65.1118 65.2762 64.2857 65.2762 63.2702V62.1369C65.2762 59.4868 63.2996 57.2898 60.743 56.9431V55.7149C60.743 54.6995 59.9169 53.8733 58.9014 53.8733C57.886 53.8733 57.0597 54.6994 57.0597 55.7149V57.0369C54.435 57.6224 52.5266 59.9557 52.5266 62.7035C52.5266 65.9061 55.1321 68.5116 58.3347 68.5116H59.4679C60.6395 68.5116 61.5928 69.4648 61.5928 70.6366C61.5928 71.8084 60.6396 72.7615 59.4679 72.7615H57.7679C56.9086 72.7615 56.2096 72.0624 56.2096 71.2032C56.2096 70.1878 55.3835 69.3616 54.368 69.3616C53.3526 69.3616 52.5264 70.1877 52.5264 71.2032C52.5264 73.8533 54.503 76.0503 57.0596 76.397V77.6252C57.0596 78.6406 57.8857 79.4668 58.9012 79.4668C59.9166 79.4668 60.7428 78.6407 60.7428 77.6252V76.3032C63.3675 75.7177 65.276 73.3844 65.276 70.6366C65.276 67.434 62.6705 64.8285 59.4679 64.8285H58.3347C57.1631 64.8285 56.2097 63.8753 56.2097 62.7035C56.2097 61.5317 57.163 60.5786 58.3347 60.5786H60.0346C60.8939 60.5786 61.5929 61.2777 61.5929 62.1369V63.2702C61.5929 64.2856 62.4192 65.1118 63.4346 65.1118ZM60.0347 59.162H58.3347C56.3819 59.162 54.7932 60.7507 54.7932 62.7035C54.7932 64.6563 56.3819 66.245 58.3347 66.245H59.468C61.8896 66.245 63.8595 68.2151 63.8595 70.6366C63.8595 72.8771 62.1815 74.753 59.9565 75.0002C59.5978 75.04 59.3264 75.3432 59.3264 75.7041V77.6252C59.3264 77.8595 59.1357 78.0501 58.9015 78.0501C58.6672 78.0501 58.4765 77.8595 58.4765 77.6252V75.7364C58.4765 75.3452 58.1594 75.0281 57.7682 75.0281C55.6591 75.0281 53.9434 73.3123 53.9434 71.2033C53.9434 70.969 54.1341 70.7783 54.3684 70.7783C54.6027 70.7783 54.7933 70.969 54.7933 71.2033C54.7933 72.8436 56.1279 74.1782 57.7682 74.1782H59.4682C61.421 74.1782 63.0097 72.5895 63.0097 70.6367C63.0097 68.6839 61.421 67.0952 59.4682 67.0952H58.3349C55.9134 67.0952 53.9434 65.1251 53.9434 62.7036C53.9434 60.4631 55.6214 58.5872 57.8464 58.34C58.2051 58.3002 58.4765 57.997 58.4765 57.636V55.715C58.4765 55.4807 58.6672 55.29 58.9015 55.29C59.1357 55.29 59.3264 55.4807 59.3264 55.715V57.6038C59.3264 57.995 59.6435 58.3121 60.0347 58.3121C62.1438 58.3121 63.8595 60.0279 63.8595 62.1369V63.2702C63.8595 63.5044 63.6688 63.6951 63.4346 63.6951C63.2003 63.6951 63.0096 63.5044 63.0096 63.2702V62.1369C63.0096 60.4966 61.6751 59.162 60.0347 59.162Z" fill="#FF7F5C"/>
</g>
<defs>
<clipPath id="clip0">
<rect width="48" height="48" fill="white" transform="translate(36 36)"/>
</clipPath>
</defs>
</svg>
