<svg width="120" height="120" viewBox="0 0 120 120" fill="none" xmlns="http://www.w3.org/2000/svg">
<circle cx="60" cy="60" r="60" fill="#FFF9F7"/>
<g clip-path="url(#clip0)">
<path d="M60.187 42.7686L60.1872 42.7685L60.187 42.7686Z" fill="#FF7F5C" stroke="#FF7F5C" stroke-width="3"/>
<mask id="path-3-inside-1" fill="white">
<path d="M78.7912 41.2091C71.8452 34.2641 60.5427 34.2638 53.5964 41.2092C47.3501 47.4565 46.6776 57.2512 51.7644 64.2582L48.8425 67.1794C47.8181 66.6891 46.5226 66.8474 45.6404 67.7297L37.3753 75.9958C35.5427 77.8271 35.5412 80.7928 37.3748 82.6251C39.2066 84.4581 42.1722 84.4588 44.0043 82.6253L52.2707 74.3599C53.1525 73.4779 53.3113 72.1825 52.8208 71.158L55.7424 68.2358C62.7509 73.3237 72.5448 72.6495 78.7912 66.4039C85.7366 59.4577 85.7366 48.1554 78.7912 41.2091ZM50.9446 73.0339L42.678 81.2995C41.5794 82.399 39.8009 82.4 38.7008 81.299C37.6011 80.2002 37.6004 78.4217 38.701 77.322L46.9663 69.0557C47.3317 68.6902 47.9265 68.69 48.2919 69.0557L50.9445 71.7083C51.3101 72.0737 51.3101 72.6685 50.9446 73.0339ZM51.6076 69.7192L50.2812 68.3928L52.9513 65.7234C53.1608 65.9558 53.3759 66.1836 53.5963 66.4039C53.8167 66.6244 54.0444 66.8396 54.277 67.0491L51.6076 69.7192ZM77.4651 65.0779C71.2517 71.2905 61.1869 71.3433 54.9222 65.0779C48.6651 58.8215 48.7023 48.7562 54.9222 42.5352C61.1368 36.3215 71.2495 36.3205 77.465 42.5352C83.6792 48.7503 83.6792 58.863 77.4651 65.0779Z"/>
</mask>
<path d="M78.7912 41.2091C71.8452 34.2641 60.5427 34.2638 53.5964 41.2092C47.3501 47.4565 46.6776 57.2512 51.7644 64.2582L48.8425 67.1794C47.8181 66.6891 46.5226 66.8474 45.6404 67.7297L37.3753 75.9958C35.5427 77.8271 35.5412 80.7928 37.3748 82.6251C39.2066 84.4581 42.1722 84.4588 44.0043 82.6253L52.2707 74.3599C53.1525 73.4779 53.3113 72.1825 52.8208 71.158L55.7424 68.2358C62.7509 73.3237 72.5448 72.6495 78.7912 66.4039C85.7366 59.4577 85.7366 48.1554 78.7912 41.2091ZM50.9446 73.0339L42.678 81.2995C41.5794 82.399 39.8009 82.4 38.7008 81.299C37.6011 80.2002 37.6004 78.4217 38.701 77.322L46.9663 69.0557C47.3317 68.6902 47.9265 68.69 48.2919 69.0557L50.9445 71.7083C51.3101 72.0737 51.3101 72.6685 50.9446 73.0339ZM51.6076 69.7192L50.2812 68.3928L52.9513 65.7234C53.1608 65.9558 53.3759 66.1836 53.5963 66.4039C53.8167 66.6244 54.0444 66.8396 54.277 67.0491L51.6076 69.7192ZM77.4651 65.0779C71.2517 71.2905 61.1869 71.3433 54.9222 65.0779C48.6651 58.8215 48.7023 48.7562 54.9222 42.5352C61.1368 36.3215 71.2495 36.3205 77.465 42.5352C83.6792 48.7503 83.6792 58.863 77.4651 65.0779Z" fill="#FF7F5C"/>
<path d="M78.7912 41.2091L80.9127 39.088L80.9124 39.0877L78.7912 41.2091ZM53.5964 41.2092L51.4752 39.0878L51.4749 39.0881L53.5964 41.2092ZM51.7644 64.2582L53.8854 66.3798L55.6969 64.5687L54.1921 62.4958L51.7644 64.2582ZM48.8425 67.1794L47.5473 69.8855L49.4622 70.802L50.9635 69.301L48.8425 67.1794ZM45.6404 67.7297L43.519 65.6085L43.519 65.6085L45.6404 67.7297ZM37.3753 75.9958L39.4959 78.1178L39.4967 78.117L37.3753 75.9958ZM37.3748 82.6251L39.4968 80.5045L39.4954 80.5031L37.3748 82.6251ZM44.0043 82.6253L41.8831 80.5038L41.8822 80.5048L44.0043 82.6253ZM52.2707 74.3599L54.3919 76.4814L54.3922 76.481L52.2707 74.3599ZM52.8208 71.158L50.6993 69.0369L49.1981 70.5384L50.115 72.4535L52.8208 71.158ZM55.7424 68.2358L57.5048 65.8081L55.4319 64.3032L53.6208 66.1147L55.7424 68.2358ZM78.7912 66.4039L80.9124 68.5254L80.9127 68.5251L78.7912 66.4039ZM50.9446 73.0339L48.8236 70.9123L48.8234 70.9125L50.9446 73.0339ZM42.678 81.2995L40.5568 79.178L40.5559 79.179L42.678 81.2995ZM38.7008 81.299L40.8229 79.1785L40.8213 79.1769L38.7008 81.299ZM38.701 77.322L40.8216 79.444L40.8224 79.4432L38.701 77.322ZM46.9663 69.0557L49.0878 71.1769L49.0879 71.1767L46.9663 69.0557ZM48.2919 69.0557L46.1697 71.1762L46.1705 71.177L48.2919 69.0557ZM50.9445 71.7083L48.8232 73.8296L48.8237 73.8302L50.9445 71.7083ZM51.6076 69.7192L49.4863 71.8405L51.6079 73.9621L53.7292 71.8403L51.6076 69.7192ZM50.2812 68.3928L48.1602 66.2713L46.0383 68.3926L48.1599 70.5142L50.2812 68.3928ZM52.9513 65.7234L55.1799 63.7151L53.0647 61.3679L50.8303 63.6018L52.9513 65.7234ZM53.5963 66.4039L55.7176 64.2826L55.7172 64.2822L53.5963 66.4039ZM54.277 67.0491L56.3986 69.1702L58.6329 66.9353L56.285 64.8202L54.277 67.0491ZM77.4651 65.0779L79.5863 67.1994L79.5866 67.1991L77.4651 65.0779ZM54.9222 65.0779L57.0437 62.9568L57.0434 62.9565L54.9222 65.0779ZM54.9222 42.5352L52.8011 40.4138L52.8007 40.4141L54.9222 42.5352ZM77.465 42.5352L79.5865 40.4141L79.5862 40.4138L77.465 42.5352ZM80.9124 39.0877C72.7949 30.9713 59.5931 30.9709 51.4752 39.0878L55.7176 43.3307C61.4923 37.5567 70.8955 37.5569 76.67 43.3306L80.9124 39.0877ZM51.4749 39.0881C44.176 46.3882 43.3912 57.8309 49.3366 66.0206L54.1921 62.4958C49.9639 56.6716 50.5241 48.5249 55.7179 43.3304L51.4749 39.0881ZM49.6433 62.1366L46.7214 65.0579L50.9635 69.301L53.8854 66.3798L49.6433 62.1366ZM50.1376 64.4734C48.0248 63.4622 45.3464 63.7809 43.519 65.6085L47.7619 69.8509C47.7529 69.8598 47.7367 69.8727 47.7145 69.8838C47.6934 69.8944 47.6729 69.9005 47.6549 69.9033C47.6242 69.9081 47.5891 69.9055 47.5473 69.8855L50.1376 64.4734ZM43.519 65.6085L35.2538 73.8746L39.4967 78.117L47.7619 69.8509L43.519 65.6085ZM35.2546 73.8737C32.2504 76.876 32.2473 81.7422 35.2542 84.7471L39.4954 80.5031C38.8352 79.8433 38.835 78.7782 39.4959 78.1178L35.2546 73.8737ZM35.2528 84.7457C38.2558 87.7508 43.1221 87.7525 46.1264 84.7458L41.8822 80.5048C41.2222 81.1652 40.1573 81.1654 39.4968 80.5045L35.2528 84.7457ZM46.1255 84.7467L54.3919 76.4814L50.1495 72.2385L41.8831 80.5038L46.1255 84.7467ZM54.3922 76.481C56.2184 74.6545 56.5388 71.9764 55.5267 69.8625L50.115 72.4535C50.0947 72.4112 50.0921 72.3759 50.097 72.3453C50.0998 72.3274 50.1058 72.307 50.1164 72.286C50.1274 72.2639 50.1402 72.2478 50.1492 72.2388L54.3922 76.481ZM54.9424 73.2791L57.8639 70.3569L53.6208 66.1147L50.6993 69.0369L54.9424 73.2791ZM53.9799 70.6635C62.1714 76.6102 73.6134 75.8234 80.9124 68.5254L76.67 64.2825C71.4763 69.4755 63.3304 70.0372 57.5048 65.8081L53.9799 70.6635ZM80.9127 68.5251C89.0294 60.4074 89.0294 47.2058 80.9127 39.088L76.6698 43.3303C82.4437 49.1051 82.4437 58.5081 76.6698 64.2828L80.9127 68.5251ZM48.8234 70.9125L40.5568 79.178L44.7992 83.4209L53.0658 75.1554L48.8234 70.9125ZM40.5559 79.179C40.6286 79.1062 40.7509 79.1065 40.8229 79.1785L36.5787 83.4195C38.851 85.6936 42.5301 85.6917 44.8002 83.42L40.5559 79.179ZM40.8213 79.1769C40.894 79.2495 40.8939 79.3718 40.8216 79.444L36.5804 75.1999C34.307 77.4717 34.3082 81.1508 36.5803 83.4211L40.8213 79.1769ZM40.8224 79.4432L49.0878 71.1769L44.8449 66.9345L36.5795 75.2008L40.8224 79.4432ZM49.0879 71.1767C48.2823 71.9825 46.9768 71.9839 46.1697 71.1762L50.414 66.9352C48.8762 65.3962 46.381 65.3979 44.8447 66.9346L49.0879 71.1767ZM46.1705 71.177L48.8232 73.8296L53.0658 69.587L50.4132 66.9343L46.1705 71.177ZM48.8237 73.8302C48.0171 73.024 48.0171 71.7186 48.8236 70.9123L53.0657 75.1555C54.6032 73.6184 54.6032 71.1235 53.0653 69.5864L48.8237 73.8302ZM53.7289 67.5979L52.4026 66.2715L48.1599 70.5142L49.4863 71.8405L53.7289 67.5979ZM52.4023 70.5144L55.0724 67.845L50.8303 63.6018L48.1602 66.2713L52.4023 70.5144ZM50.7227 67.7317C50.9633 67.9987 51.2144 68.2647 51.4755 68.5257L55.7172 64.2822C55.5375 64.1025 55.3582 63.913 55.1799 63.7151L50.7227 67.7317ZM51.475 68.5253C51.7352 68.7855 52.001 69.0366 52.2691 69.2781L56.285 64.8202C56.0879 64.6426 55.8982 64.4632 55.7176 64.2826L51.475 68.5253ZM52.1555 64.9281L49.486 67.5982L53.7292 71.8403L56.3986 69.1702L52.1555 64.9281ZM75.344 62.9565C70.2954 68.0043 62.1301 68.0438 57.0437 62.9568L52.8008 67.1991C60.2437 74.6429 72.2079 74.5767 79.5863 67.1994L75.344 62.9565ZM57.0434 62.9565C51.9627 57.8763 51.9904 49.7105 57.0437 44.6564L52.8007 40.4141C45.4142 47.8019 45.3674 59.7666 52.801 67.1994L57.0434 62.9565ZM57.0434 44.6567C62.0866 39.6142 70.3 39.6135 75.3438 44.6567L79.5862 40.4138C72.199 33.0275 60.187 33.0288 52.8011 40.4138L57.0434 44.6567ZM75.3436 44.6564C80.3864 49.6999 80.3864 57.9134 75.3437 62.9568L79.5866 67.1991C86.9721 59.8126 86.9721 47.8006 79.5865 40.4141L75.3436 44.6564Z" fill="#FF7F5C" mask="url(#path-3-inside-1)"/>
<path d="M56.6015 44.2142C56.7709 44.0457 57.0437 44.0438 57.2155 44.2088L57.2161 44.2096L57.2313 44.2259C57.3913 44.3977 57.3875 44.6665 57.2211 44.834C57.0537 45.0004 56.7846 45.0044 56.6126 44.8445L56.6126 44.8445L56.6073 44.8397L56.6016 44.834C56.4311 44.6628 56.4309 44.3857 56.6015 44.2142Z" fill="#FF7F5C" stroke="#FF7F5C"/>
</g>
<defs>
<clipPath id="clip0">
<rect width="48" height="48" fill="white" transform="translate(36 36)"/>
</clipPath>
</defs>
</svg>
